<?xml version="1.0" encoding="UTF-8" standalone="no"?>
<!-- Uploaded to: SVG Repo, www.svgrepo.com, Generator: SVG Repo Mixer Tools -->

<svg
   width="800px"
   height="800px"
   viewBox="0 0 24 24"
   fill="none"
   version="1.1"
   id="svg1"
   sodipodi:docname="trash.svg"
   inkscape:version="1.4 (1:1.4+202410161351+e7c3feb100)"
   xmlns:inkscape="http://www.inkscape.org/namespaces/inkscape"
   xmlns:sodipodi="http://sodipodi.sourceforge.net/DTD/sodipodi-0.dtd"
   xmlns="http://www.w3.org/2000/svg"
   xmlns:svg="http://www.w3.org/2000/svg">
  <defs
     id="defs1" />
  <sodipodi:namedview
     id="namedview1"
     pagecolor="#ffffff"
     bordercolor="#000000"
     borderopacity="0.25"
     inkscape:showpageshadow="2"
     inkscape:pageopacity="0.0"
     inkscape:pagecheckerboard="0"
     inkscape:deskcolor="#d1d1d1"
     inkscape:zoom="1.22875"
     inkscape:cx="400"
     inkscape:cy="399.59308"
     inkscape:window-width="3428"
     inkscape:window-height="1359"
     inkscape:window-x="1920"
     inkscape:window-y="681"
     inkscape:window-maximized="1"
     inkscape:current-layer="svg1" />
  <path
     d="M 18,6 17.1991,18.0129 C 17.129,19.065 17.0939,19.5911 16.8667,19.99 16.6666,20.3412 16.3648,20.6235 16.0011,20.7998 15.588,21 15.0607,21 14.0062,21 H 9.99377 C 8.93927,21 8.41202,21 7.99889,20.7998 7.63517,20.6235 7.33339,20.3412 7.13332,19.99 6.90607,19.5911 6.871,19.065 6.80086,18.0129 L 6,6 M 4,6 H 20 M 16,6 15.7294,5.18807 C 15.4671,4.40125 15.3359,4.00784 15.0927,3.71698 14.8779,3.46013 14.6021,3.26132 14.2905,3.13878 13.9376,3 13.523,3 12.6936,3 H 11.3064 C 10.477,3 10.0624,3 9.70951,3.13878 9.39792,3.26132 9.12208,3.46013 8.90729,3.71698 8.66405,4.00784 8.53292,4.40125 8.27064,5.18807 L 8,6 m 6,4 v 7 m -4,-7 v 7"
     stroke="#000000"
     stroke-width="2"
     stroke-linecap="round"
     stroke-linejoin="round"
     id="path1"
     style="display:inline;stroke:#ff0000;stroke-opacity:1" />
</svg>
